<svg width="313" height="220" viewBox="0 0 313 220" fill="none" xmlns="http://www.w3.org/2000/svg">
<path d="M188.758 52.3438H124.066V167.653H188.758V52.3438Z" fill="#FF5F00"/>
<path d="M128.175 109.999C128.165 98.8941 130.702 87.9323 135.594 77.9435C140.487 67.9547 147.606 59.2009 156.413 52.3447C145.507 43.8414 132.408 38.5533 118.615 37.0848C104.821 35.6164 90.8894 38.0268 78.4118 44.0406C65.9342 50.0545 55.4141 59.4291 48.0541 71.0929C40.694 82.7568 36.791 96.2392 36.791 109.999C36.791 123.759 40.694 137.242 48.0541 148.906C55.4141 160.569 65.9342 169.944 78.4118 175.958C90.8894 181.972 104.821 184.382 118.615 182.914C132.408 181.445 145.507 176.157 156.413 167.654C147.606 160.797 140.487 152.044 135.595 142.055C130.702 132.066 128.165 121.104 128.175 109.999V109.999Z" fill="#EB001B"/>
<path d="M276.033 109.999C276.033 123.759 272.131 137.241 264.771 148.905C257.412 160.569 246.892 169.944 234.414 175.958C221.937 181.972 208.006 184.382 194.212 182.914C180.419 181.445 167.321 176.157 156.414 167.654C165.214 160.791 172.328 152.035 177.219 142.048C182.111 132.061 184.652 121.103 184.652 109.999C184.652 98.8959 182.111 87.9375 177.219 77.9503C172.328 67.9631 165.214 59.2078 156.414 52.3447C167.321 43.8413 180.419 38.5532 194.212 37.0848C208.006 35.6164 221.937 38.0269 234.414 44.0408C246.892 50.0547 257.412 59.4293 264.771 71.0932C272.131 82.757 276.033 96.2394 276.033 109.999V109.999Z" fill="#F79E1B"/>
<path d="M268.979 155.44V153.079H269.938V152.598H267.494V153.079H268.454V155.44H268.979ZM273.724 155.44V152.594H272.974L272.113 154.552L271.251 152.594H270.501V155.44H271.03V153.293L271.838 155.144H272.387L273.195 153.288V155.44H273.724Z" fill="#F79E1B"/>
</svg>
