<svg width="24" height="24" viewBox="0 0 24 24" fill="none" xmlns="http://www.w3.org/2000/svg">
<g opacity="">
<path d="M6.75 3V3.75H3.75V20.25H20.25V3.75H17.25V3H15.75V3.75H8.25V3H6.75ZM5.25 5.25H6.75V6H8.25V5.25H15.75V6H17.25V5.25H18.75V6.75H5.25V5.25ZM5.25 8.25H18.75V18.75H5.25V8.25ZM9.75 9.75V11.25H11.25V9.75H9.75ZM12.75 9.75V11.25H14.25V9.75H12.75ZM15.75 9.75V11.25H17.25V9.75H15.75ZM6.75 12.75V14.25H8.25V12.75H6.75ZM9.75 12.75V14.25H11.25V12.75H9.75ZM12.75 12.75V14.25H14.25V12.75H12.75ZM15.75 12.75V14.25H17.25V12.75H15.75ZM6.75 15.75V17.25H8.25V15.75H6.75ZM9.75 15.75V17.25H11.25V15.75H9.75ZM12.75 15.75V17.25H14.25V15.75H12.75Z" fill="#2C2C2C"/>
</g>
</svg>
