<svg width="32" height="32" viewBox="0 0 32 32" fill="none" xmlns="http://www.w3.org/2000/svg">
<path d="M16 3C8.80078 3 3 8.80078 3 16C3 23.1992 8.80078 29 16 29C23.1992 29 29 23.1992 29 16C29 14.6016 28.8125 13.207 28.3125 11.9062L26.6875 13.5C26.8867 14.3008 27 15.1016 27 16C27 22.1016 22.1016 27 16 27C9.89844 27 5 22.1016 5 16C5 9.89844 9.89844 5 16 5C19 5 21.6953 6.19531 23.5938 8.09375L25 6.6875C22.6992 4.38672 19.5 3 16 3ZM27.2812 7.28125L16 18.5625L11.7188 14.2812L10.2812 15.7188L15.2812 20.7188L16 21.4062L16.7188 20.7188L28.7188 8.71875L27.2812 7.28125Z" fill="#2C2C2C"/>
</svg>
