<?xml version="1.0" encoding="iso-8859-1"?>
<!-- Generator: Adobe Illustrator 17.1.0, SVG Export Plug-In . SVG Version: 6.00 Build 0)  -->
<!DOCTYPE svg PUBLIC "-//W3C//DTD SVG 1.1//EN" "http://www.w3.org/Graphics/SVG/1.1/DTD/svg11.dtd">
<svg version="1.1" id="Capa_1" xmlns="http://www.w3.org/2000/svg" xmlns:xlink="http://www.w3.org/1999/xlink" x="0px" y="0px"
	 viewBox="0 0 385.752 385.752" style="enable-background:new 0 0 385.752 385.752;" xml:space="preserve">
<path id="XMLID_1713_" d="M262.189,174.014c0.583-4.341,0.878-8.782,0.878-13.2c0-54.229-44.119-98.348-98.349-98.348
	c-54.229,0-98.347,44.119-98.347,98.348c0,54.229,44.118,98.347,98.347,98.347c4.971,0,9,4.029,9,9s-4.029,9-9,9
	c-64.154,0-116.347-52.193-116.347-116.347c0-64.155,52.193-116.348,116.347-116.348c64.155,0,116.349,52.193,116.349,116.348
	c0,5.216-0.349,10.462-1.038,15.594c-0.661,4.927-5.191,8.383-10.117,7.723C264.985,183.47,261.528,178.94,262.189,174.014z
	 M189.576,357.769h-15.858v-45.142c0-4.971-4.029-9-9-9c-78.748,0-142.813-64.065-142.813-142.813
	C21.905,82.066,85.97,18,164.718,18c78.748,0,142.814,64.066,142.814,142.814c0,14.629-2.201,29.048-6.541,42.857
	c-1.49,4.742,1.146,9.794,5.888,11.284c4.741,1.49,9.794-1.146,11.284-5.888c4.89-15.557,7.369-31.792,7.369-48.254
	C325.532,72.141,253.391,0,164.718,0C76.045,0,3.905,72.141,3.905,160.814c0,85.652,67.311,155.88,151.813,160.564v36.39h-33.95
	c-4.971,0-9,4.029-9,9s4.029,9,9,9h42.741c0.07,0.001,0.139,0.002,0.209,0.002s0.14-0.001,0.209-0.002h24.649c4.971,0,9-4.029,9-9
	S194.547,357.769,189.576,357.769z M203.298,208.392c2.303,0,4.606-0.879,6.364-2.636c3.515-3.515,3.515-9.213,0-12.728
	l-77.16-77.16c-3.515-3.515-9.213-3.514-12.728,0c-3.515,3.515-3.515,9.213,0,12.728l77.16,77.16
	C198.692,207.514,200.995,208.392,203.298,208.392z M120.761,167.594c-3.515,3.515-3.515,9.213,0,12.728l42.448,42.45
	c1.758,1.758,4.061,2.636,6.364,2.636c2.303,0,4.606-0.879,6.364-2.636c3.515-3.515,3.515-9.213,0-12.728l-42.448-42.45
	C129.974,164.08,124.276,164.081,120.761,167.594z M336.758,363.991c-19.772,14.429-42.692,21.761-64.817,21.761
	c-15.976,0-31.536-3.822-45.202-11.553l-3.485,2.543c-4.013,2.93-9.645,2.051-12.575-1.965c-2.93-4.015-2.05-9.645,1.965-12.575
	l3.485-2.543c-0.333-1.601-0.619-3.209-0.859-4.822c-21.757-19.062-31.971-49.867-26.741-81.393
	c6.171-37.208,32.624-66.402,65.823-72.645c2.086-0.394,4.245-0.035,6.093,1.011c14.918,8.436,26.554,22.074,33.423,38.967
	c28.096-8.457,57.815-5.164,80.996,10.362c1.764,1.181,3.054,2.948,3.641,4.989C389.515,294.388,372.739,337.735,336.758,363.991z
	 M234.844,282.279l5.374-32.405c0.814-4.903,5.448-8.217,10.352-7.406c4.405,0.731,7.529,4.546,7.529,8.87
	c0,0.489-0.04,0.984-0.123,1.482l-1.185,7.141c0.862-0.666,1.732-1.32,2.617-1.966c5.67-4.138,11.601-7.692,17.695-10.658
	c-4.896-11.918-12.737-21.671-22.677-28.134c-24.271,6.119-43.411,28.667-48.141,57.186c-3.028,18.251,0.514,36.582,9.215,50.913
	C218.055,311.447,224.693,295.949,234.844,282.279z M362.046,264.315c-20.114-12.075-45.882-13.238-69.726-4.004
	c-0.431,0.212-0.883,0.393-1.357,0.538c-7.245,2.936-14.296,6.835-20.944,11.687c-7.361,5.372-13.766,11.575-19.103,18.335
	c-0.282,0.438-0.602,0.848-0.952,1.226c-12.678,16.618-19.001,36.449-17.417,55.581l90.994-66.402
	c4.015-2.93,9.646-2.05,12.575,1.965c2.93,4.015,2.05,9.645-1.965,12.575l-90.993,66.402c25.463,10.544,57.266,6.006,82.989-12.766
	C355.018,328.383,369.148,294.551,362.046,264.315z M189.83,145.46c2.303,0,4.606-0.879,6.364-2.636
	c3.515-3.515,3.515-9.213,0-12.728l-31.342-31.343c-3.515-3.515-9.213-3.514-12.728,0c-3.515,3.515-3.515,9.213,0,12.728
	l31.342,31.343C185.224,144.582,187.527,145.46,189.83,145.46z"/>
<g>
</g>
<g>
</g>
<g>
</g>
<g>
</g>
<g>
</g>
<g>
</g>
<g>
</g>
<g>
</g>
<g>
</g>
<g>
</g>
<g>
</g>
<g>
</g>
<g>
</g>
<g>
</g>
<g>
</g>
</svg>
