<svg width="32" height="32" viewBox="0 0 32 32" fill="none" xmlns="http://www.w3.org/2000/svg">
<path d="M14.5938 4L14.2812 4.28125L3.28125 15.2812L2.59375 16L3.28125 16.7188L12.2812 25.7188L13 26.4062L13.7188 25.7188L24.7188 14.7188L25 14.4062V4H14.5938ZM15.4375 6H23V13.5625L13 23.5625L5.4375 16L15.4375 6ZM26 7V9H27V17.1562L17.5 26.5938L16.25 25.3438L14.8438 26.75L16.7812 28.7188L17.5 29.4062L18.1875 28.7188L28.7188 18.3125L29 18V7H26ZM20 8C19.4492 8 19 8.44922 19 9C19 9.55078 19.4492 10 20 10C20.5508 10 21 9.55078 21 9C21 8.44922 20.5508 8 20 8Z" fill="#2C2C2C"/>
</svg>
