<svg width="193" height="193" viewBox="0 0 193 193" fill="none" xmlns="http://www.w3.org/2000/svg">
<path d="M103.814 171.515C150.901 171.515 189.071 133.344 189.071 86.2574C189.071 39.171 150.901 1 103.814 1C56.7279 1 18.5566 39.171 18.5566 86.2574C18.5566 133.344 56.7279 171.515 103.814 171.515Z" stroke="#C4C4C4" stroke-width="0.455572" stroke-miterlimit="10"/>
<path d="M34.4559 39.1991C36.1144 39.1991 37.4589 37.8546 37.4589 36.1961C37.4589 34.5376 36.1144 33.1934 34.4559 33.1934C32.7976 33.1934 31.4531 34.5376 31.4531 36.1961C31.4531 37.8546 32.7976 39.1991 34.4559 39.1991Z" fill="#FFCC00"/>
<path d="M189.073 92.5077C190.732 92.5077 192.077 91.1635 192.077 89.505C192.077 87.8464 190.732 86.502 189.073 86.502C187.416 86.502 186.07 87.8464 186.07 89.505C186.07 91.1635 187.416 92.5077 189.073 92.5077Z" fill="#134B88"/>
<path d="M107.312 174.518C108.97 174.518 110.314 173.173 110.314 171.515C110.314 169.856 108.97 168.512 107.312 168.512C105.653 168.512 104.309 169.856 104.309 171.515C104.309 173.173 105.653 174.518 107.312 174.518Z" fill="#FFCC00"/>
<path d="M105.789 150.42C140.915 150.42 169.389 121.946 169.389 86.8207C169.389 51.6952 140.915 23.2207 105.789 23.2207C70.664 23.2207 42.1895 51.6952 42.1895 86.8207C42.1895 121.946 70.664 150.42 105.789 150.42Z" stroke="#D8D8D8" stroke-width="0.339847" stroke-miterlimit="10"/>
<path d="M168.299 101.869C169.536 101.869 170.539 100.866 170.539 99.6289C170.539 98.3916 169.536 97.3887 168.299 97.3887C167.062 97.3887 166.059 98.3916 166.059 99.6289C166.059 100.866 167.062 101.869 168.299 101.869Z" fill="#3195C9"/>
<path d="M46.8005 112.961C48.0378 112.961 49.0407 111.958 49.0407 110.72C49.0407 109.483 48.0378 108.48 46.8005 108.48C45.5635 108.48 44.5605 109.483 44.5605 110.72C44.5605 111.958 45.5635 112.961 46.8005 112.961Z" fill="#134B88"/>
<path d="M77.3025 32.1364C78.5398 32.1364 79.5426 31.1335 79.5426 29.8962C79.5426 28.6592 78.5398 27.6562 77.3025 27.6562C76.0654 27.6562 75.0625 28.6592 75.0625 29.8962C75.0625 31.1335 76.0654 32.1364 77.3025 32.1364Z" fill="#1C85E8"/>
<path d="M138.893 157.248H65.4451C62.2585 157.248 59.9237 154.665 60.2301 151.478L72.7682 21.0471C73.0744 17.8606 75.9058 15.2773 79.0923 15.2773H152.54C155.727 15.2773 158.062 17.8606 157.755 21.0471L145.217 151.478C144.911 154.665 142.079 157.248 138.893 157.248Z" fill="#728191"/>
<path d="M133.715 157.248H60.2673C57.081 157.248 54.7462 154.665 55.0524 151.478L67.5905 21.0471C67.8969 17.8606 70.7283 15.2773 73.9148 15.2773H147.363C150.549 15.2773 152.884 17.8606 152.578 21.0471L140.039 151.478C139.733 154.665 136.902 157.248 133.715 157.248Z" fill="url(#paint0_linear_1762_6430)"/>
<path d="M130.931 152.912H63.8836C60.9305 152.912 58.7666 150.518 59.0504 147.565L70.8361 24.9601C71.1202 22.007 73.7441 19.6133 76.6972 19.6133H143.744C146.698 19.6133 148.861 22.007 148.578 24.9601L136.792 147.565C136.508 150.518 133.884 152.912 130.931 152.912Z" fill="white"/>
<path d="M136.308 75.3872L64.3838 75.3233C64.0899 75.3314 63.7978 75.2765 63.5268 75.1626C63.2561 75.0487 63.0124 74.8783 62.8127 74.6627C62.6128 74.4473 62.4614 74.1915 62.3682 73.9129C62.275 73.6341 62.2425 73.3386 62.2726 73.0462L66.1502 29.9898C66.2203 29.3684 66.5155 28.7943 66.98 28.3757C67.4443 27.9569 68.0457 27.7227 68.6709 27.7168L140.595 27.7807C140.889 27.7729 141.181 27.8276 141.452 27.9414C141.723 28.0555 141.967 28.2257 142.167 28.4413C142.366 28.6569 142.518 28.9125 142.611 29.1913C142.704 29.4699 142.737 29.7654 142.707 30.0578L138.829 73.1145C138.759 73.7356 138.464 74.3097 137.999 74.7285C137.535 75.1471 136.934 75.3815 136.308 75.3872Z" fill="url(#paint1_linear_1762_6430)"/>
<path d="M134.044 121.782H103.644C103.42 121.786 103.198 121.742 102.992 121.654C102.786 121.565 102.602 121.432 102.451 121.266C102.301 121.1 102.188 120.903 102.12 120.689C102.052 120.475 102.031 120.25 102.058 120.027L105.749 81.6282C105.803 81.152 106.027 80.7115 106.381 80.3887C106.735 80.0659 107.194 79.8829 107.673 79.8734H138.073C138.297 79.8688 138.52 79.9126 138.725 80.0017C138.931 80.0906 139.116 80.2228 139.266 80.3892C139.416 80.5556 139.529 80.7522 139.597 80.9659C139.665 81.1798 139.686 81.4057 139.659 81.6282L135.968 120.027C135.915 120.503 135.69 120.943 135.336 121.266C134.982 121.589 134.523 121.772 134.044 121.782Z" fill="url(#paint2_linear_1762_6430)"/>
<path d="M126.796 100.599C130.224 97.3315 130.597 92.1579 127.629 89.0439C124.661 85.9296 119.476 86.0539 116.048 89.3213C112.619 92.5889 112.246 97.7622 115.214 100.876C118.182 103.991 123.368 103.866 126.796 100.599Z" stroke="#134B88" stroke-width="2.7788" stroke-miterlimit="10"/>
<path d="M117.566 102.513C114.722 101.285 112.92 98.366 113.247 94.9601C113.681 90.4462 117.692 86.7871 122.206 86.7871" stroke="white" stroke-width="2.7788" stroke-miterlimit="10" stroke-linecap="round"/>
<path d="M116.893 109.541H123.147" stroke="white" stroke-width="1.4224" stroke-miterlimit="10" stroke-linecap="round"/>
<path d="M116.213 116.621H122.467" stroke="white" stroke-width="1.4224" stroke-miterlimit="10" stroke-linecap="round"/>
<path opacity="0.4" d="M113.223 113.041H126.148" stroke="white" stroke-width="1.4224" stroke-miterlimit="10" stroke-linecap="round"/>
<path d="M96.8665 121.782H66.4667C66.2426 121.786 66.0198 121.742 65.814 121.654C65.6084 121.565 65.4239 121.432 65.2734 121.266C65.1232 121.1 65.0103 120.903 64.9425 120.689C64.8745 120.475 64.8536 120.25 64.8805 120.027L68.5717 81.6282C68.6249 81.152 68.8493 80.7115 69.2033 80.3887C69.5572 80.0659 70.0162 79.8829 70.4952 79.8734H100.895C101.119 79.8688 101.342 79.9126 101.548 80.0017C101.754 80.0906 101.938 80.2228 102.088 80.3892C102.239 80.5556 102.352 80.7522 102.419 80.9659C102.487 81.1798 102.508 81.4057 102.481 81.6282L98.79 120.027C98.7368 120.503 98.5124 120.944 98.1584 121.266C97.8047 121.589 97.3455 121.772 96.8665 121.782Z" fill="#D8D8D8" fill-opacity="0.44"/>
<path d="M89.6183 100.599C93.0466 97.3315 93.4196 92.1579 90.4515 89.0439C87.4834 85.9296 82.298 86.0539 78.8697 89.3213C75.4414 92.5889 75.0685 97.7622 78.0365 100.876C81.0046 103.991 86.19 103.866 89.6183 100.599Z" stroke="#134B88" stroke-width="2.7788" stroke-miterlimit="10"/>
<path d="M92.4175 94.9601C91.9836 99.474 87.9727 103.133 83.4588 103.133C78.9449 103.133 75.6374 99.474 76.0715 94.9601C76.5053 90.4462 80.5162 86.7871 85.0301 86.7871" stroke="white" stroke-width="2.7788" stroke-miterlimit="10" stroke-linecap="round"/>
<path d="M79.7148 109.541H85.969" stroke="white" stroke-width="1.4224" stroke-miterlimit="10" stroke-linecap="round"/>
<path d="M79.0352 116.621H85.2896" stroke="white" stroke-width="1.4224" stroke-miterlimit="10" stroke-linecap="round"/>
<path opacity="0.4" d="M76.0449 113.041H88.9702" stroke="white" stroke-width="1.4224" stroke-miterlimit="10" stroke-linecap="round"/>
<path d="M131.495 149.246H63.7347C63.5222 149.25 63.3113 149.208 63.1164 149.124C62.9213 149.04 62.7465 148.914 62.6039 148.757C62.4615 148.599 62.3546 148.413 62.2901 148.21C62.226 148.007 62.206 147.794 62.2314 147.582L64.2536 126.548C64.304 126.097 64.5168 125.679 64.8522 125.374C65.1876 125.068 65.6226 124.894 66.0766 124.885H133.837C134.05 124.881 134.26 124.922 134.456 125.007C134.65 125.091 134.825 125.216 134.968 125.374C135.11 125.532 135.217 125.718 135.282 125.921C135.346 126.123 135.366 126.337 135.34 126.548L133.318 147.582C133.268 148.034 133.055 148.451 132.72 148.757C132.384 149.063 131.949 149.237 131.495 149.246Z" fill="url(#paint3_linear_1762_6430)"/>
<path d="M68.4551 144.37L69.4109 134.426" stroke="white" stroke-width="2.7788" stroke-miterlimit="10" stroke-linecap="round"/>
<path d="M75.4665 137.402L74.7969 144.368" stroke="white" stroke-width="2.7788" stroke-miterlimit="10" stroke-linecap="round"/>
<path d="M81.5835 139.783L81.1426 144.37" stroke="white" stroke-width="2.7788" stroke-miterlimit="10" stroke-linecap="round"/>
<path d="M88.6906 131.842L87.4863 144.37" stroke="white" stroke-width="2.7788" stroke-miterlimit="10" stroke-linecap="round"/>
<path d="M94.2691 139.783L93.8281 144.37" stroke="white" stroke-width="2.7788" stroke-miterlimit="10" stroke-linecap="round"/>
<path d="M101.325 132.395L100.174 144.369" stroke="white" stroke-width="2.7788" stroke-miterlimit="10" stroke-linecap="round"/>
<path d="M106.996 139.398L106.518 144.37" stroke="white" stroke-width="2.7788" stroke-miterlimit="10" stroke-linecap="round"/>
<path d="M113.114 141.721L112.859 144.369" stroke="white" stroke-width="2.7788" stroke-miterlimit="10" stroke-linecap="round"/>
<path d="M120.161 134.426L119.205 144.37" stroke="white" stroke-width="2.7788" stroke-miterlimit="10" stroke-linecap="round"/>
<path d="M126.871 130.639L125.551 144.369" stroke="white" stroke-width="2.7788" stroke-miterlimit="10" stroke-linecap="round"/>
<path d="M70.2105 68.7852L74.0187 74.7505C74.1906 75.0199 74.249 75.346 74.1815 75.6581C74.1138 75.9705 73.9257 76.2431 73.6578 76.4174L73.0424 76.8172C72.0122 77.4866 70.7739 77.7592 69.5578 77.5845C68.3417 77.4096 67.2304 76.7991 66.4305 75.8663L61.377 69.9732L70.2105 68.7852Z" fill="#FFCCB3"/>
<path d="M67.3027 71.0801C67.3027 71.0801 68.7128 75.9218 71.5456 77.475C72.2811 77.1902 72.9878 76.8358 73.6558 76.4167L70.4793 71.0801" fill="#FCBA9F"/>
<path d="M2.1543 92.8535L17.1123 85.6853C18.5217 85.01 19.7133 83.9526 20.552 82.6338L35.002 59.9029C35.9015 58.4878 37.2063 57.376 38.7464 56.7126L59.5588 47.7461L55.1031 81.4415L55.0247 82.6861C55.0247 82.6861 49.52 96.9431 36.0279 102.123L14.4568 115.316L2.1543 92.8535Z" fill="#FFCCB3"/>
<path d="M18.4335 84.8945C18.4335 84.8945 25.5092 102.556 36.0289 102.123L29.3124 106.231C29.3124 106.231 6.51512 102.002 15.0487 86.6398L18.4335 84.8945Z" fill="#FCBA9F"/>
<path d="M56.3368 53.9844C56.3368 53.9844 48.9782 58.4434 49.3685 68.7869L58.2054 65.4846L56.3368 53.9844Z" fill="#FCBA9F"/>
<path d="M74.8236 68.7852L78.6317 74.7505C78.8036 75.0199 78.8621 75.346 78.7946 75.6581C78.7271 75.9705 78.5388 76.2431 78.2709 76.4174L77.6555 76.8172C76.6252 77.4866 75.387 77.7592 74.1708 77.5845C72.9547 77.4096 71.8434 76.7991 71.0435 75.8663L65.9902 69.9732L74.8236 68.7852Z" fill="#FFCCB3"/>
<path d="M131.119 71.1394L59.1943 71.0755C58.9005 71.0833 58.6083 71.0286 58.3376 70.9145C58.0666 70.8007 57.8232 70.6302 57.6233 70.4149C57.4233 70.1993 57.2719 69.9437 57.1787 69.6649C57.0856 69.3861 57.053 69.0908 57.0832 68.7984L60.9607 25.7418C61.0311 25.1204 61.3261 24.5463 61.7906 24.1277C62.2548 23.7091 62.8562 23.4747 63.4817 23.4688L135.406 23.5329C135.7 23.5249 135.992 23.5798 136.263 23.6936C136.534 23.8075 136.777 23.9779 136.977 24.1933C137.177 24.4089 137.328 24.6647 137.422 24.9433C137.515 25.2221 137.547 25.5176 137.517 25.8097L133.64 68.8664C133.569 69.4878 133.274 70.0619 132.81 70.4805C132.346 70.8991 131.744 71.1335 131.119 71.1394Z" fill="#3195C9"/>
<path d="M63.959 49.0101C63.959 49.0101 70.4152 47.7043 72.1529 50.734C73.8903 53.7634 75.3886 59.4528 80.0116 58.7194C84.6347 57.9858 88.1735 43.1113 92.7183 43.247C97.2633 43.3828 95.6609 53.1246 100.608 53.2606C105.555 53.3966 104.675 47.8189 107.972 47.9744C111.971 48.1629 110.481 59.7204 115.695 59.8566C120.91 59.9928 121.761 44.5903 129.645 44.8606" stroke="white" stroke-width="1.7983" stroke-miterlimit="10" stroke-linecap="round"/>
<path d="M67.6289 30.6777L80.283 30.6889" stroke="white" stroke-width="2.85232" stroke-miterlimit="10" stroke-linecap="round"/>
<path opacity="0.4" d="M67.1074 36.4785L93.2581 36.5018" stroke="white" stroke-width="2.85232" stroke-miterlimit="10" stroke-linecap="round"/>
<path d="M42.623 70.9231L51.8496 66.859L61.2851 60.4182C63.7665 58.7245 68.9486 57.9615 70.8142 60.3162C72.7119 62.7114 70.5803 67.4495 68.2788 69.4593L59.5588 77.0739L55.0245 82.6858L42.623 70.9231Z" fill="#FFCCB3"/>
<path d="M61.377 62.8641C61.377 62.8641 62.6226 67.6673 65.8521 68.4983L69.2775 65.6044C69.6248 65.3458 69.9158 65.0192 70.1328 64.6445C70.3499 64.2697 70.4882 63.8546 70.5395 63.4248C70.5909 62.9948 70.5543 62.5589 70.4316 62.1436C70.309 61.7283 70.1031 61.3423 69.8264 61.0092C69.3431 60.4273 68.669 60.036 67.924 59.9053C67.179 59.7748 66.4117 59.9131 65.7594 60.2958L61.377 62.8641Z" stroke="#FF967C" stroke-width="0.713135" stroke-linecap="round"/>
<path d="M17.681 85.0938C17.681 85.0938 15.8929 97.8814 31.453 105.204C31.453 105.204 20.2754 115.457 15.9659 117.181C11.6567 118.905 -4.5346 101.287 1.2242 91.2866C2.83921 88.4823 17.681 85.0938 17.681 85.0938Z" fill="#134B88"/>
<path d="M76.639 71.6285C76.639 71.6285 70.5743 71.7521 68.4632 72.857L66.9395 71.0801L76.2891 71.0803L76.639 71.6285Z" fill="#FCBA9F"/>
<path d="M135.273 119.273C135.273 119.273 141.031 117.737 144.096 121.037C144.096 121.037 149.605 120.037 151.845 123.102C151.845 123.102 156.728 123.384 158.143 125.376C159.319 125.539 160.431 126.01 161.366 126.742C162.301 127.473 163.026 128.44 163.466 129.543C164.801 132.69 163.668 150.887 162.341 157.408C162.009 159.039 162.123 160.729 162.67 162.301L166.047 172.004L142.685 181.77L137.139 167.304C137.139 167.304 130.388 156.454 129.423 154.525C128.459 152.596 130.093 136.59 126.801 126.592L135.273 119.273Z" fill="#FFCCB3"/>
<path d="M140.152 175.163L139.479 173.405C139.479 173.405 151.601 172.63 162.671 162.301L163.729 165.344C163.729 165.344 162.362 171.629 156.137 174.591C149.911 177.553 140.152 175.163 140.152 175.163Z" fill="#FCBA9F"/>
<path d="M140.151 175.163C140.151 175.163 154.824 176.5 163.728 165.344C163.728 165.344 167.015 167.067 172.063 179.685C173.613 183.561 147.724 197.359 143.538 191.623C143.538 191.623 139.925 183.979 140.151 175.163Z" fill="#3195C9"/>
<path d="M128.237 132.629C128.237 132.629 127.731 135.314 125.337 135.315C123.776 135.315 117.009 133.27 112.492 131.849C111.263 131.462 109.944 131.462 108.715 131.849C107.487 132.235 106.406 132.99 105.62 134.011L105.345 134.368C105.209 134.544 105.11 134.747 105.054 134.963C104.998 135.179 104.987 135.404 105.021 135.625C105.055 135.846 105.133 136.057 105.251 136.247C105.369 136.436 105.524 136.6 105.707 136.727C109.531 139.397 119.858 146.643 121.178 147.964C122.804 149.589 131.855 158.701 131.855 158.701L128.237 132.629Z" fill="#FFCCB3"/>
<path d="M127.686 129.938C127.686 129.938 132.578 136.558 131.854 138.008C131.13 139.457 123.545 135.026 123.545 135.026C123.545 135.026 129.665 136.6 127.686 129.938Z" fill="#FCBA9F"/>
<path d="M126.803 126.592L118.573 101.597C118.29 100.739 118.183 99.8339 118.257 98.9341C118.331 98.0346 118.585 97.1589 119.004 96.3595C119.423 95.5598 119.998 94.8524 120.696 94.2793C121.393 93.7061 122.198 93.2787 123.064 93.0227C123.773 92.8133 124.533 92.8699 125.203 93.1822C125.872 93.4946 126.404 94.0409 126.699 94.7183L138.246 121.261L126.803 126.592Z" fill="#FFCCB3"/>
<path d="M123.232 115.752C123.466 116.135 123.776 116.466 124.143 116.724C124.51 116.982 124.926 117.161 125.366 117.25" stroke="#FF967C" stroke-width="0.713135" stroke-linecap="round"/>
<path d="M126.193 102.957C127.195 102.514 128.3 101.893 128.775 101.17L125.71 93.8926C125.644 93.7357 125.546 93.5947 125.422 93.4787C125.298 93.3627 125.15 93.2745 124.989 93.2198C124.828 93.1652 124.658 93.1454 124.488 93.1618C124.319 93.1783 124.155 93.2303 124.008 93.3147C122.917 93.9442 121.478 95.0799 121.422 96.7106L123.495 101.869C123.596 102.121 123.748 102.35 123.94 102.542C124.132 102.734 124.361 102.885 124.613 102.987C124.865 103.088 125.134 103.138 125.406 103.133C125.678 103.128 125.946 103.068 126.193 102.957Z" stroke="#FF967C" stroke-width="0.713135" stroke-linecap="round"/>
<path d="M137.316 119.127L140.154 125.378" stroke="#FF967C" stroke-width="0.713135" stroke-linecap="round"/>
<path d="M144.211 121.166C145.653 123.233 146.426 125.693 146.425 128.214" stroke="#FF967C" stroke-width="0.713135" stroke-linecap="round"/>
<path d="M151.982 123.221C151.982 123.221 153.411 126.497 153.529 129.087" stroke="#FF967C" stroke-width="0.713135" stroke-linecap="round"/>
<path d="M158.342 125.572C158.904 126.955 159.123 128.453 158.977 129.939" stroke="#FF967C" stroke-width="0.713135" stroke-linecap="round"/>
<path d="M111.751 139.782C111.751 139.782 113.441 137.636 112.861 136.559C112.281 135.483 109.702 133.96 108.212 134.126C107.501 134.233 106.814 134.467 106.186 134.816C106.072 134.876 105.975 134.964 105.906 135.073C105.836 135.182 105.796 135.307 105.79 135.436C105.784 135.564 105.811 135.693 105.87 135.808C105.928 135.923 106.016 136.02 106.124 136.091L111.751 139.782Z" stroke="#FF967C" stroke-width="0.713135" stroke-linecap="round"/>
<path d="M77.7523 162.37C78.8009 162.37 79.6512 161.52 79.6512 160.471C79.6512 159.422 78.8009 158.572 77.7523 158.572C76.7036 158.572 75.8535 159.422 75.8535 160.471C75.8535 161.52 76.7036 162.37 77.7523 162.37Z" fill="white"/>
<defs>
<linearGradient id="paint0_linear_1762_6430" x1="92.5186" y1="-29.8944" x2="159.99" y2="308.223" gradientUnits="userSpaceOnUse">
<stop stop-color="white"/>
<stop offset="1" stop-color="#C4C4C4"/>
</linearGradient>
<linearGradient id="paint1_linear_1762_6430" x1="100.487" y1="27.6034" x2="107.029" y2="129.443" gradientUnits="userSpaceOnUse">
<stop stop-color="white"/>
<stop offset="1" stop-color="#C4C4C4"/>
</linearGradient>
<linearGradient id="paint2_linear_1762_6430" x1="119.922" y1="79.7733" x2="130.623" y2="168.382" gradientUnits="userSpaceOnUse">
<stop stop-color="white"/>
<stop offset="1" stop-color="#C4C4C4"/>
</linearGradient>
<linearGradient id="paint3_linear_1762_6430" x1="96.9653" y1="124.827" x2="98.8502" y2="177.017" gradientUnits="userSpaceOnUse">
<stop stop-color="white"/>
<stop offset="1" stop-color="#C4C4C4"/>
</linearGradient>
</defs>
</svg>
