<svg width="32" height="32" viewBox="0 0 32 32" fill="none" xmlns="http://www.w3.org/2000/svg">
<path d="M7 4C6.21094 4 5.54297 4.46094 5.21875 5.125C3.95312 5.47656 3 6.62891 3 8V17.375L3.25 17.6562C3.25 17.6562 5.60547 20.4141 9 20.9062V23C9 26.3008 11.6992 29 15 29C18.3008 29 21 26.3008 21 23V18C21 16.8828 21.8828 16 23 16C24.1172 16 25 16.8828 25 18V18.1875C23.8438 18.6055 23 19.707 23 21C23 22.6445 24.3555 24 26 24C27.6445 24 29 22.6445 29 21C29 19.707 28.1562 18.6055 27 18.1875V18C27 15.8008 25.1992 14 23 14C20.8008 14 19 15.8008 19 18V23C19 25.2188 17.2188 27 15 27C12.7812 27 11 25.2188 11 23V20.9062C14.3945 20.4141 16.75 17.6562 16.75 17.6562L17 17.375V8C17 6.62891 16.0469 5.47656 14.7812 5.125C14.457 4.46094 13.7891 4 13 4C11.8945 4 11 4.89453 11 6C11 7.10547 11.8945 8 13 8C13.6562 8 14.2305 7.67969 14.5938 7.1875C14.8438 7.36719 15 7.66016 15 8V16.5625C14.6406 16.9258 12.5117 19 10 19C7.48828 19 5.35938 16.9258 5 16.5625V8C5 7.66016 5.15625 7.36719 5.40625 7.1875C5.76953 7.67969 6.34375 8 7 8C8.10547 8 9 7.10547 9 6C9 4.89453 8.10547 4 7 4ZM26 20C26.5625 20 27 20.4375 27 21C27 21.5625 26.5625 22 26 22C25.4375 22 25 21.5625 25 21C25 20.4375 25.4375 20 26 20Z" fill="#2C2C2C"/>
</svg>
