<svg width="32" height="32" viewBox="0 0 32 32" fill="none" xmlns="http://www.w3.org/2000/svg">
<path d="M4 4V7.65625L1 11.6562V12C1 13.6445 2.35547 15 4 15V28H20V19H22V28H28V15C29.6445 15 31 13.6445 31 12V11.6562L28 7.65625V4H4ZM6 6H26V7H6V6ZM5.5 9H26.5L28.9062 12.2188C28.7969 12.6523 28.4688 13 28 13C27.4453 13 27 12.5547 27 12H25C25 12.5547 24.5547 13 24 13C23.4453 13 23 12.5547 23 12H21C21 12.5547 20.5547 13 20 13C19.4453 13 19 12.5547 19 12H17C17 12.5547 16.5547 13 16 13C15.4453 13 15 12.5547 15 12H13C13 12.5547 12.5547 13 12 13C11.4453 13 11 12.5547 11 12H9C9 12.5547 8.55469 13 8 13C7.44531 13 7 12.5547 7 12H5C5 12.5547 4.55469 13 4 13C3.53125 13 3.20312 12.6523 3.09375 12.2188L5.5 9ZM6 14.2188C6.53125 14.6992 7.23438 15 8 15C8.76562 15 9.46875 14.6992 10 14.2188C10.5312 14.6992 11.2344 15 12 15C12.7656 15 13.4688 14.6992 14 14.2188C14.5312 14.6992 15.2344 15 16 15C16.7656 15 17.4688 14.6992 18 14.2188C18.5312 14.6992 19.2344 15 20 15C20.7656 15 21.4688 14.6992 22 14.2188C22.5312 14.6992 23.2344 15 24 15C24.7656 15 25.4688 14.6992 26 14.2188V26H24V17H18V26H6V14.2188ZM8 17V24H16V17H8ZM10 19H14V22H10V19Z" fill="#2C2C2C"/>
</svg>
