<svg width="32" height="32" viewBox="0 0 32 32" fill="none" xmlns="http://www.w3.org/2000/svg">
<path d="M5.25 2.75L4.6875 3.28125L3.28125 4.6875L2.75 5.25L3.15625 5.90625L5.25 9.40625L5.53125 9.90625H8.46875L12.4688 13.875C8.89453 17.4648 4.34766 22.0273 4.1875 22.1875C2.62109 23.7539 2.61719 26.3203 4.21875 27.8125C5.78125 29.3555 8.32812 29.3945 9.8125 27.8125C9.82422 27.8008 9.83203 27.793 9.84375 27.7812L16 21.5938L22.1875 27.8125L22.2812 27.875C23.8516 29.3555 26.3477 29.375 27.8125 27.8125V27.7812H27.8438C29.375 26.2148 29.3906 23.668 27.8125 22.1875L27.7812 22.1562L22.5625 16.9688C26.0742 16.6406 28.8242 13.6758 28.875 10.0938H28.9062C28.9102 10.0742 28.9062 10.0508 28.9062 10.0312C28.9062 10.0195 28.9062 10.0117 28.9062 10C29.0039 8.84375 28.7539 7.73828 28.1562 6.78125L27.4688 5.71875L22.8125 10.375L21.4062 8.90625L26.1562 4.15625L24.7812 3.59375C23.9766 3.25 23.0469 3 22 3C18.1562 3 15 6.15625 15 10C15 10.418 15.0898 10.7812 15.1562 11.1562C14.7188 11.5938 14.3906 11.9531 13.875 12.4688L9.90625 8.5V5.53125L9.40625 5.25L5.90625 3.15625L5.25 2.75ZM22 5C22.1406 5 22.2383 5.08203 22.375 5.09375L18.5938 8.875L19.2812 9.59375L22.0938 12.5L22.7812 13.2188L26.75 9.25C26.7695 9.48047 26.9336 9.64844 26.9062 9.90625V10C26.9062 12.7539 24.6602 15 21.9062 15C21.5391 15 21.0938 14.9141 20.5938 14.8125L20.0625 14.7188L19.6875 15.0938L8.40625 26.4062H8.375V26.4375C7.66406 27.2148 6.42188 27.2344 5.59375 26.4062V26.375H5.5625C4.78516 25.6641 4.76562 24.4219 5.59375 23.5938C5.97266 23.2148 13.3125 15.8125 16.9062 12.2188L17.3125 11.8125L17.1562 11.25C17.0742 10.9258 17 10.3672 17 10C17 7.24609 19.2461 5 22 5ZM5.5625 5.25L7.90625 6.6875V7.6875L7.6875 7.90625H6.6875L5.25 5.5625L5.5625 5.25ZM20.1875 17.4062L26.4062 23.5938V23.625H26.4375C27.2148 24.3359 27.2344 25.5781 26.4062 26.4062H26.375V26.4375C25.6641 27.2148 24.4219 27.2344 23.5938 26.4062L17.4062 20.1875L20.1875 17.4062Z" fill="#2C2C2C"/>
</svg>
