<svg width="32" height="32" viewBox="0 0 32 32" fill="none" xmlns="http://www.w3.org/2000/svg">
<path d="M16 3C15.0742 3 14.0547 3.26953 13.1875 3.53125C12.3359 3.78906 11.7109 4.05469 11.6875 4.0625H11.6562L8.78125 5.03125L8.6875 5.0625C8.62891 5.07812 8.53516 5.10547 8.3125 5.1875L8 5.28125V5.3125C7.16406 5.67188 5.85547 6.44922 5.09375 8.0625C4.05859 10.25 4 12.9688 4 12.9688V15H8V29H24V15H28V12.9062C28 12.9062 27.9141 12.0586 27.75 11.0312C27.5859 10.0039 27.418 8.87109 26.8438 7.96875C25.9102 6.5 24.75 5.75391 24 5.375V5.28125L23.5938 5.15625C23.5352 5.12891 23.5469 5.14453 23.5 5.125L23.3125 5.0625L20.3438 4.0625H20.3125C20.2891 4.05469 19.6641 3.78906 18.8125 3.53125C17.9453 3.26953 16.9258 3 16 3ZM16 5C16.4336 5 17.4258 5.23047 18.2188 5.46875C18.4258 5.53125 18.4141 5.53516 18.5938 5.59375C18.5312 5.6875 18.4844 5.77734 18.4062 5.875C17.9375 6.45703 17.2812 7 16 7C14.7188 7 14.0625 6.45703 13.5938 5.875C13.5156 5.77734 13.4688 5.6875 13.4062 5.59375C13.5859 5.53516 13.5742 5.53125 13.7812 5.46875C14.5742 5.23047 15.5664 5 16 5ZM11.4375 6.21875C11.5859 6.50391 11.7773 6.80859 12.0312 7.125C12.7695 8.04297 14.0938 9 16 9C17.9062 9 19.2305 8.04297 19.9688 7.125C20.2227 6.80859 20.4141 6.50391 20.5625 6.21875L22 6.71875V27H10V6.71875L11.4375 6.21875ZM8 7.5625V13H6C6.00391 12.9453 6.15625 10.5234 6.90625 8.9375C7.20703 8.30078 7.60547 7.85938 8 7.5625ZM24 7.71875C24.3672 8.02734 24.7734 8.42969 25.1562 9.03125C25.3164 9.28516 25.6289 10.4062 25.7812 11.3438C25.9258 12.2305 25.9922 12.9219 26 13H24V7.71875Z" fill="#2C2C2C"/>
</svg>
