<svg width="19" height="19" viewBox="0 0 19 19" fill="none" xmlns="http://www.w3.org/2000/svg">
<g clip-path="url(#clip0_933_2842)">
<path d="M8.70769 7.12484H11.8744C12.0843 7.12484 12.2857 7.04143 12.4341 6.89296C12.5826 6.7445 12.666 6.54313 12.666 6.33317C12.666 6.12321 12.5826 5.92184 12.4341 5.77338C12.2857 5.62491 12.0843 5.5415 11.8744 5.5415H10.291V4.74984C10.291 4.53987 10.2076 4.33851 10.0591 4.19004C9.91068 4.04158 9.70932 3.95817 9.49935 3.95817C9.28939 3.95817 9.08803 4.04158 8.93956 4.19004C8.79109 4.33851 8.70769 4.53987 8.70769 4.74984V5.5415C8.0778 5.5415 7.47371 5.79173 7.02831 6.23713C6.58291 6.68252 6.33269 7.28661 6.33269 7.9165C6.33269 8.54639 6.58291 9.15048 7.02831 9.59588C7.47371 10.0413 8.0778 10.2915 8.70769 10.2915H10.291C10.501 10.2915 10.7023 10.3749 10.8508 10.5234C10.9993 10.6718 11.0827 10.8732 11.0827 11.0832C11.0827 11.2931 10.9993 11.4945 10.8508 11.643C10.7023 11.7914 10.501 11.8748 10.291 11.8748H7.12435C6.91439 11.8748 6.71303 11.9582 6.56456 12.1067C6.41609 12.2552 6.33269 12.4565 6.33269 12.6665C6.33269 12.8765 6.41609 13.0778 6.56456 13.2263C6.71303 13.3748 6.91439 13.4582 7.12435 13.4582H8.70769V14.2498C8.70769 14.4598 8.79109 14.6612 8.93956 14.8096C9.08803 14.9581 9.28939 15.0415 9.49935 15.0415C9.70932 15.0415 9.91068 14.9581 10.0591 14.8096C10.2076 14.6612 10.291 14.4598 10.291 14.2498V13.4582C10.9209 13.4582 11.525 13.2079 11.9704 12.7625C12.4158 12.3172 12.666 11.7131 12.666 11.0832C12.666 10.4533 12.4158 9.84919 11.9704 9.40379C11.525 8.95839 10.9209 8.70817 10.291 8.70817H8.70769C8.49772 8.70817 8.29636 8.62476 8.14789 8.4763C7.99943 8.32783 7.91602 8.12647 7.91602 7.9165C7.91602 7.70654 7.99943 7.50518 8.14789 7.35671C8.29636 7.20825 8.49772 7.12484 8.70769 7.12484ZM9.49935 0.791504C7.77701 0.791504 6.09334 1.30224 4.66126 2.25912C3.22918 3.21601 2.11302 4.57606 1.4539 6.1673C0.794789 7.75854 0.622335 9.5095 0.958348 11.1987C1.29436 12.888 2.12375 14.4397 3.34163 15.6576C4.55951 16.8754 6.11119 17.7048 7.80044 18.0408C9.48969 18.3769 11.2406 18.2044 12.8319 17.5453C14.4231 16.8862 15.7832 15.77 16.7401 14.3379C17.697 12.9059 18.2077 11.2222 18.2077 9.49984C18.2077 7.19024 17.2902 4.97524 15.6571 3.34212C14.0239 1.70899 11.8089 0.791504 9.49935 0.791504ZM9.49935 16.6248C8.09016 16.6248 6.71262 16.207 5.54092 15.4241C4.36921 14.6412 3.45599 13.5284 2.91671 12.2265C2.37744 10.9245 2.23634 9.49193 2.51126 8.10982C2.78618 6.7277 3.46477 5.45815 4.46122 4.4617C5.45767 3.46525 6.72722 2.78666 8.10933 2.51174C9.49145 2.23682 10.924 2.37792 12.226 2.9172C13.5279 3.45647 14.6407 4.3697 15.4236 5.5414C16.2065 6.7131 16.6244 8.09065 16.6244 9.49984C16.6244 11.3895 15.8737 13.2018 14.5375 14.538C13.2013 15.8742 11.389 16.6248 9.49935 16.6248Z" fill="#FF6767"/>
</g>
<defs>
<clipPath id="clip0_933_2842">
<rect width="19" height="19" fill="white"/>
</clipPath>
</defs>
</svg>
