<svg width="32" height="32" viewBox="0 0 32 32" fill="none" xmlns="http://www.w3.org/2000/svg">
<path d="M11 5C9.36328 5 8.13672 6.21094 7.3125 7.5625C6.48828 8.91406 6 10.5156 6 12C6 14.582 7.78125 16.4648 10 16.9062V28H12V16.9062C14.2188 16.4648 16 14.582 16 12C16 10.5156 15.5117 8.91406 14.6875 7.5625C13.8633 6.21094 12.6367 5 11 5ZM18 5V12C18 13.8516 19.2812 15.3984 21 15.8438V28H23V15.8438C24.7188 15.3984 26 13.8516 26 12V5H24V12C24 13.1172 23.1172 14 22 14C20.8828 14 20 13.1172 20 12V5H18ZM21 5V12C21 12.5508 21.4492 13 22 13C22.5508 13 23 12.5508 23 12V5H21ZM11 7C11.5742 7 12.3438 7.56641 12.9688 8.59375C13.5938 9.62109 14 10.9961 14 12C14 14.0039 12.75 15 11 15C9.25 15 8 14.0039 8 12C8 10.9961 8.40625 9.62109 9.03125 8.59375C9.65625 7.56641 10.4258 7 11 7Z" fill="#2C2C2C"/>
</svg>
