<svg width="32" height="32" viewBox="0 0 32 32" fill="none" xmlns="http://www.w3.org/2000/svg">
<path d="M8.1875 5L8.03125 5.78125C8.03125 5.78125 7 10.4883 7 13C7 17.6172 10.5156 21.4297 15 21.9375V26H10V28H22V26H17V21.9375C21.4844 21.4297 25 17.6172 25 13C25 10.4844 23.9688 5.78125 23.9688 5.78125L23.8125 5H8.1875ZM9.84375 7H22.1562C22.25 7.48828 22.4883 8.71875 22.6875 10H11V12H22.9375C22.9688 12.3477 23 12.7227 23 13C23 16.8789 19.8789 20 16 20C12.1211 20 9 16.8789 9 13C9 11.3125 9.66797 7.90625 9.84375 7Z" fill="#2C2C2C"/>
</svg>
