<svg version="1.1" id="svg40" xmlns="http://www.w3.org/2000/svg" x="0" y="0" viewBox="0 0 1000 221.7" style="enable-background:new 0 0 1000 221.7" xml:space="preserve"><style></style><linearGradient id="path30_00000078744892914162308040000003978123873442636725_" gradientUnits="userSpaceOnUse" x1="567.68" y1="1029.144" x2="828.124" y2="1029.144" gradientTransform="matrix(3.8309 0 0 -3.8091 -2172.587 4031)"><stop offset="0" style="stop-color:#FFFFFF"/><stop offset="1" style="stop-color:#FFFFFF"/></linearGradient><path id="path30" style="fill:url(#path30_00000078744892914162308040000003978123873442636725_)" d="M609.6 0c-61.2-.3-111.1 49-111.5 110.2 0 61.6 50 111.5 111.6 111.5 61.5 0 111.4-49.9 111.5-111.5C720.7 49.1 670.8-.3 609.6 0zm0 168.5c-32.2-.4-57.9-26.7-57.6-58.9s26.8-57.9 59-57.6c31.9.4 57.6 26.3 57.6 58.2-.3 32.4-26.6 58.5-59 58.3z"/><linearGradient id="path32_00000091011340375344099250000013209243854103948431_" gradientUnits="userSpaceOnUse" x1="840.842" y1="1031.138" x2="1085.024" y2="1031.138" gradientTransform="matrix(4.0867 0 0 -3.5707 -3434.161 3792.18)"><stop offset="0" style="stop-color:#FFFFFF"/><stop offset="1" style="stop-color:#FFFFFF"/></linearGradient><path id="path32" style="fill:url(#path32_00000091011340375344099250000013209243854103948431_)" d="M873.8 0c-69.2-.3-125.7 55.5-126.1 124.7 0 33.1 13.3 64.9 36.9 88.1 10.3 10.1 26.9 10.1 37.2 0 10.2-10 10.3-26.3.3-36.5l-.3-.3c-28.4-27.9-28.8-73.6-.8-102l.8-.8c28.9-28.4 75.1-28.4 104 0 28.4 27.9 28.8 73.6.8 102l-.8.8c-10.2 10-10.3 26.3-.3 36.5l.3.3c10.3 10.1 26.9 10.1 37.2 0 23.7-23.2 37.1-54.9 37.1-88.1-.6-69.2-57-125-126.3-124.7z"/><linearGradient id="path34_00000123404157889955906350000003809190378329924538_" gradientUnits="userSpaceOnUse" x1="-104.606" y1="1031.14" x2="139.569" y2="1031.14" gradientTransform="matrix(4.0868 0 0 -3.5706 429.524 3792.059)"><stop offset="0" style="stop-color:#FFFFFF"/><stop offset="1" style="stop-color:#FFFFFF"/></linearGradient><path id="path34" style="fill:url(#path34_00000123404157889955906350000003809190378329924538_)" d="M126.2 0C56.9-.3.5 55.5 0 124.8c0 33.1 13.3 64.9 36.9 88.1 10.3 10.1 26.9 10.1 37.2 0 10.2-10 10.3-26.3.3-36.5l-.3-.3c-28.4-27.9-28.8-73.6-.9-102l.9-.9c28.9-28.4 75.1-28.4 104 0 28.4 27.9 28.8 73.6.9 102l-.9.9c-10.2 10-10.3 26.3-.3 36.5l.3.3c10.3 10.1 26.9 10.1 37.2 0 23.7-23.2 37.1-54.9 37.1-88.1C251.8 55.5 195.4-.3 126.2 0z"/><linearGradient id="path36_00000109731673893532018310000003885041256098543005_" gradientUnits="userSpaceOnUse" x1="296.967" y1="1027.728" x2="573.479" y2="1027.728" gradientTransform="matrix(3.6083 0 0 -4.0441 -1069.36 4266.494)"><stop offset="0" style="stop-color:#FFFFFF"/><stop offset="1" style="stop-color:#FFFFFF"/></linearGradient><path id="path36" style="fill:url(#path36_00000109731673893532018310000003885041256098543005_)" d="M469.4 67.4c9.9-10.2 9.7-26.5-.5-36.5l-.3-.3c-44.8-42.5-115.5-40.6-158 4.2-19.3 20.4-30.3 47.3-30.6 75.4.8 61.7 51.5 111.1 113.2 110.2 28.1-.4 55-11.3 75.4-30.6 10.4-9.8 10.9-26.1 1.1-36.5l-.3-.3c-10.1-10.4-26.6-10.7-37.2-.8-23.3 22-60 21.5-82.7-1.2-22.6-22.5-22.6-59.1-.1-81.7l.1-.1c22.7-22.7 59.3-23.2 82.7-1.2 10.5 10.1 27.1 9.8 37.2-.6z"/><linearGradient id="ellipse38_00000061463415646362603530000013756044082679155130_" gradientUnits="userSpaceOnUse" x1="-152.914" y1="1040.497" x2="106.82" y2="1040.497" gradientTransform="matrix(3.8418 -.02126 -.02102 -3.7983 611.443 4061.267)"><stop offset="0" style="stop-color:#FFFFFF"/><stop offset="1" style="stop-color:#FFFFFF"/></linearGradient><path id="ellipse38" style="fill:url(#ellipse38_00000061463415646362603530000013756044082679155130_)" d="M391.3 84.3c14.5-.1 26.3 11.5 26.4 25.8s-11.6 26.1-26.1 26.1c-14.5.1-26.3-11.5-26.4-25.8s11.6-26.1 26.1-26.1z"/></svg>