<svg width="59" height="40" viewBox="0 0 59 40" fill="none" xmlns="http://www.w3.org/2000/svg">
<path fill-rule="evenodd" clip-rule="evenodd" d="M38.7113 39.8451H37.3456C37.295 39.8451 37.2539 39.8036 37.2539 39.7525V34.8684C37.2539 34.3277 37.5216 34.0462 38.0342 33.8998C38.8809 33.6634 39.4829 33.6069 40.0175 33.6069C41.8007 33.6069 42.5029 34.5303 42.5029 35.8253V39.7525C42.5029 39.8036 42.4617 39.8451 42.4109 39.8451H41.068C41.0169 39.8451 40.976 39.8036 40.976 39.7525V35.9602C40.976 35.3863 40.7308 34.936 39.9398 34.936C39.6829 34.936 39.4157 34.9566 38.8717 35.0978C38.8311 35.1084 38.8027 35.1453 38.8027 35.1876V39.7525C38.8027 39.8036 38.7619 39.8451 38.7113 39.8451Z" fill="white"/>
<path fill-rule="evenodd" clip-rule="evenodd" d="M47.6334 39.8043C47.6165 39.8299 47.5879 39.8451 47.5575 39.8451H46.3428C44.5153 39.8451 43.2773 38.8652 43.2773 36.7711C43.2773 34.5641 44.6147 33.5845 46.1637 33.5845C47.8576 33.5845 48.9608 34.553 48.9608 36.6136C48.9608 37.0526 48.7603 37.2665 48.3146 37.2665H44.8841C44.829 37.2665 44.7858 37.3161 44.7932 37.3718C44.9104 38.2542 45.5638 38.5951 46.4544 38.5951H48.2727C48.3462 38.5951 48.3897 38.6784 48.3485 38.7398L47.6334 39.8043ZM46.119 34.7107C45.3472 34.7107 44.8637 35.2423 44.7789 36.1052C44.7735 36.1602 44.8157 36.2082 44.8703 36.2082H47.3736C47.4262 36.2082 47.4679 36.1641 47.4656 36.1109C47.4349 35.3336 47.0288 34.7107 46.119 34.7107Z" fill="white"/>
<path fill-rule="evenodd" clip-rule="evenodd" d="M52.9688 39.8014L51.8141 37.9222C51.7783 37.8638 51.6946 37.8636 51.6583 37.9219L50.4931 39.8016C50.4763 39.8285 50.4469 39.845 50.4155 39.845H48.8769C48.8036 39.845 48.7599 39.7627 48.801 39.7007L50.722 36.7998C50.7426 36.7689 50.7426 36.7283 50.7225 36.6974L48.8434 33.8071C48.8031 33.7454 48.8467 33.6636 48.9198 33.6636H50.4824C50.5138 33.6636 50.5432 33.6798 50.5598 33.7069L51.679 35.5056C51.7155 35.5642 51.8006 35.5632 51.8356 35.5038L52.8912 33.709C52.9078 33.6806 52.9377 33.6636 52.9701 33.6636H54.5207C54.5935 33.6636 54.6374 33.7449 54.5978 33.8068L52.7831 36.6305C52.7632 36.6613 52.7632 36.7007 52.7831 36.7314L54.6977 39.7018C54.7375 39.7637 54.6936 39.845 54.6208 39.845H53.0467C53.0153 39.845 52.9854 39.8285 52.9688 39.8014Z" fill="white"/>
<path fill-rule="evenodd" clip-rule="evenodd" d="M58.7798 39.5928C58.7872 39.6401 58.7578 39.6855 58.7119 39.6974C58.1602 39.8408 57.725 39.9123 57.3 39.9123C55.8957 39.9123 55.2383 39.1358 55.2383 37.6269V32.4796C55.2383 32.4347 55.27 32.3965 55.3134 32.3882L56.6344 32.1412C56.6905 32.1307 56.7427 32.1743 56.7427 32.2323V33.5707C56.7427 33.6218 56.7838 33.6633 56.8343 33.6633H58.5121C58.5627 33.6633 58.6038 33.7051 58.6038 33.7562V34.7642C58.6038 34.8153 58.5627 34.8568 58.5121 34.8568H56.8343C56.7838 34.8568 56.7427 34.8987 56.7427 34.9498V37.7394C56.7427 38.2912 56.9434 38.6852 57.5674 38.6852C57.833 38.6852 58.1548 38.6192 58.507 38.5299C58.5591 38.5167 58.6112 38.551 58.6199 38.6047L58.7798 39.5928Z" fill="white"/>
<mask id="mask0" mask-type="alpha" maskUnits="userSpaceOnUse" x="15" y="0" width="36" height="30">
<path fill-rule="evenodd" clip-rule="evenodd" d="M16.2016 1.13546C15.3876 2.1512 15.5429 3.64127 16.5479 4.46398L46.287 28.7979C47.2923 29.6204 48.767 29.4642 49.5813 28.4485C50.3953 27.4325 50.2405 25.9427 49.2352 25.12L19.4959 0.785527C19.0622 0.430688 18.5412 0.258301 18.0234 0.258301C17.341 0.258301 16.6646 0.557914 16.2016 1.13546Z" fill="white"/>
</mask>
<g mask="url(#mask0)">
<path fill-rule="evenodd" clip-rule="evenodd" d="M16.2016 1.13546C15.3876 2.1512 15.5429 3.64127 16.5479 4.46398L46.287 28.7979C47.2923 29.6204 48.767 29.4642 49.5813 28.4485C50.3953 27.4325 50.2405 25.9427 49.2352 25.12L19.4959 0.785527C19.0622 0.430688 18.5412 0.258301 18.0234 0.258301C17.341 0.258301 16.6646 0.557914 16.2016 1.13546Z" fill="url(#paint0_linear)"/>
</g>
<path fill-rule="evenodd" clip-rule="evenodd" d="M47.7618 29.3242C47.404 29.3242 47.0408 29.2429 46.6983 29.0713C45.5129 28.4765 45.0294 27.0238 45.6174 25.8262L54.2363 8.2855C54.8245 7.08783 56.2622 6.5988 57.4478 7.19363C58.6329 7.78796 59.1167 9.24086 58.5284 10.4383L49.9098 27.9792C49.4912 28.8311 48.6433 29.3242 47.7618 29.3242Z" fill="#1E3C3C"/>
<mask id="mask1" mask-type="alpha" maskUnits="userSpaceOnUse" x="0" y="0" width="21" height="37">
<path fill-rule="evenodd" clip-rule="evenodd" d="M0 0.264648H20.4189V36.9099H0V0.264648Z" fill="white"/>
</mask>
<g mask="url(#mask1)">
<path fill-rule="evenodd" clip-rule="evenodd" d="M2.39476 36.9099C2.03693 36.9099 1.67373 36.8287 1.33123 36.657C0.145862 36.0625 -0.337887 34.6096 0.250326 33.4119L15.8761 1.60982C16.4646 0.412139 17.9023 -0.0768932 19.0877 0.517687C20.273 1.11227 20.757 2.56517 20.1686 3.76285L4.54277 35.5652C4.12415 36.4168 3.27618 36.9099 2.39476 36.9099Z" fill="#00FF5F"/>
</g>
<mask id="mask2" mask-type="alpha" maskUnits="userSpaceOnUse" x="0" y="6" width="59" height="31">
<path fill-rule="evenodd" clip-rule="evenodd" d="M55.3834 7.15981L1.49517 32.3771C0.321298 32.9265 -0.189524 34.3332 0.354247 35.519C0.897506 36.7051 2.29001 37.2212 3.46362 36.6721L57.3516 11.4545C58.5257 10.9051 59.0363 9.49865 58.493 8.31259C58.0966 7.44859 57.2504 6.93994 56.3662 6.93994C56.0367 6.9402 55.7019 7.01065 55.3834 7.15981Z" fill="white"/>
</mask>
<g mask="url(#mask2)">
<path fill-rule="evenodd" clip-rule="evenodd" d="M55.3834 7.15981L1.49517 32.3771C0.321298 32.9265 -0.189524 34.3332 0.354247 35.519C0.897506 36.7051 2.29001 37.2212 3.46362 36.6721L57.3516 11.4545C58.5257 10.9051 59.0363 9.49865 58.493 8.31259C58.0966 7.44859 57.2504 6.93994 56.3662 6.93994C56.0367 6.9402 55.7019 7.01065 55.3834 7.15981Z" fill="url(#paint1_linear)"/>
</g>
<defs>
<linearGradient id="paint0_linear" x1="11.9639" y1="12.604" x2="27.0432" y2="27.6779" gradientUnits="userSpaceOnUse">
<stop stop-color="#00FF5E"/>
<stop offset="1" stop-color="#1D3B3B"/>
</linearGradient>
<linearGradient id="paint1_linear" x1="39.4217" y1="28.1671" x2="50.1363" y2="9.88993" gradientUnits="userSpaceOnUse">
<stop stop-color="#00FF5E"/>
<stop offset="1" stop-color="#1D3B3B"/>
</linearGradient>
</defs>
</svg>
