<svg version="1.1" id="Camada_1" xmlns="http://www.w3.org/2000/svg" x="0" y="0" viewBox="0 0 378.3 500" style="enable-background:new 0 0 378.3 500" xml:space="preserve"><style>.st1{fill-rule:evenodd;clip-rule:evenodd;fill:#fff}</style><g id="Symbols"><g id="iti_logo" transform="translate(-26 -16)"><g id="Group-7" transform="translate(26 15)"><g id="Group-3"><defs><filter id="Adobe_OpacityMaskFilter" filterUnits="userSpaceOnUse" x="0" y="1" width="378.3" height="382.7"><feColorMatrix values="1 0 0 0 0 0 1 0 0 0 0 0 1 0 0 0 0 0 1 0"/></filter></defs><mask maskUnits="userSpaceOnUse" x="0" y="1" width="378.3" height="382.7" id="mask-2_1_"><g style="filter:url(#Adobe_OpacityMaskFilter)"><path id="path-1_1_" class="st1" d="M0-6.5h378.3v391.9H0z"/></g></mask><linearGradient id="Fill-1_1_" gradientUnits="userSpaceOnUse" x1="-64.336" y1="507.478" x2="-57.185" y2="500.159" gradientTransform="matrix(51.6889 0 0 -52.2923 3329.166 26538.818)"><stop offset="0" style="stop-color:#FFFFFF"/><stop offset="1" style="stop-color:#FFFFFF"/></linearGradient><path id="Fill-1" d="M370.5 375.5V180.1c0-29.6-24.8-53.5-55.3-53.5h-.6v248.8h55.9zM64.6 126.6H64c-30.3 0-54.8 23.7-54.8 53v195.8h55.4V126.6zM175 173.1h94.9v-46.5H175v-91h-10.6c-25.7 0-46.6 20.2-46.6 45.1v46.6l.1 149.9c.1 10.6.9 21.4 2.8 31.9 5.3 28.1 19.1 51.1 46.7 63.5 35 15.7 66.7 13.7 102.4 2.4v-51.1s-19 7.8-47.1 7.8c-3.9 0-7.8-.1-11.6-.8-18.6-3.3-30.6-14.9-34.4-34.2-1.1-5.5-1.7-11.3-1.8-16.9V173.1zM306 34.5c-.1 19.3 15.4 34.2 36 34.3 20.3.1 36.3-14.8 36.3-34 0-19-15.4-33.7-35.7-33.8-20.7-.2-36.5 14.2-36.6 33.5zM36 1C56.6.9 72.3 15.6 72.3 34.9c0 19.2-16.1 34.2-36.4 34C15.6 68.7.1 54.1 0 35.2-.1 15.8 15.4 1.1 36 1z" style="mask:url(#mask-2_1_);fill-rule:evenodd;clip-rule:evenodd;fill:url(#Fill-1_1_)"/></g><g id="Group-6" transform="translate(31 60)"><defs><filter id="Adobe_OpacityMaskFilter_1_" filterUnits="userSpaceOnUse" x="196.2" y="373" width="137.3" height="68"><feColorMatrix values="1 0 0 0 0 0 1 0 0 0 0 0 1 0 0 0 0 0 1 0"/></filter></defs><mask maskUnits="userSpaceOnUse" x="196.2" y="373" width="137.3" height="68" id="mask-5_1_"><g style="filter:url(#Adobe_OpacityMaskFilter_1_)"><path id="path-4_1_" class="st1" d="M196.2 373h137.3v68H196.2z"/></g></mask><path id="Fill-4" d="M318 387h-9.6l9.4-14h11.9L318 387zm-8 54c-4.7 0-8.4-1.7-11.2-5-2.8-3.3-4.2-7.8-4.2-13.3v-29.4h10.9v27.6c0 3.5.7 6.2 2.2 8.1 1.4 1.9 3.5 2.8 6.1 2.8 2.6 0 4.8-1 6.4-3 1.6-2 2.4-4.6 2.4-7.9v-27.7h10.9v46.6H324l-.6-5.5c-1.5 2.2-3.4 3.8-5.7 4.9-2.3 1.2-4.8 1.8-7.7 1.8zm-43.7-7.9c2.7 0 5-1 6.9-3 1.9-2 2.9-4.4 2.9-7.2v-4.6h-3.7c-4.3 0-7.7.7-10 2s-3.5 3.3-3.5 5.9c0 2.1.7 3.8 2 5 1.4 1.3 3.2 1.9 5.4 1.9zm-3 7.9c-4.5 0-8-1.2-10.7-3.7-2.7-2.5-4-5.7-4-9.9 0-5.3 2-9.3 6.1-12.3 4.1-2.9 9.9-4.4 17.5-4.4h1.9c.6 0 1.3 0 1.8.1-.2-3.4-1.1-5.8-2.8-7.4-1.7-1.6-4.2-2.4-7.6-2.4-4.3 0-8.7 1.3-13 3.8v-9c4.7-2.5 9.6-3.8 14.7-3.8 6.2 0 10.9 1.7 14.2 5.2 3.3 3.4 5 8.4 5 14.8v27.8h-9l-.6-5.4c-1.4 2-3.3 3.6-5.7 4.8-2.4 1.2-5 1.8-7.8 1.8zm-26.8-.3c-4.9 0-8.6-1.3-11.2-4-2.5-2.7-3.8-6.6-3.8-11.9v-23h-7.2v-8.6h7.2v-12.4h10.9v12.4h10.2v8.6h-10.2v22c0 2.7.5 4.7 1.6 6 1.1 1.3 2.7 1.9 4.9 1.9 1.7 0 3.3-.4 4.9-1.1v8.7c-2.3 1-4.8 1.4-7.3 1.4zm-40.3-.9h11.2v-60.6h-11.2v60.6z" style="mask:url(#mask-5_1_);fill-rule:evenodd;clip-rule:evenodd;fill:#DDD"/></g></g></g></g></svg>