<?xml version="1.0" encoding="utf-8"?>
<!-- Generator: Adobe Illustrator 23.0.2, SVG Export Plug-In . SVG Version: 6.00 Build 0)  -->
<svg version="1.1" id="Camada_1" xmlns="http://www.w3.org/2000/svg" xmlns:xlink="http://www.w3.org/1999/xlink" x="0px" y="0px"
	 viewBox="0 0 21.1 21.1" style="enable-background:new 0 0 21.1 21.1;" xml:space="preserve">
<style type="text/css">
</style>
<g id="Grupo_3442" transform="translate(17 180)">
	<path id="Caminho_5562" class="st0" d="M3.8-171.5c-0.1,0.1-0.2,0.2-0.4,0.2c-0.1,0-0.2,0-0.3-0.1l-8.2-5.7c-0.8-0.5-1.8-0.5-2.7,0
		l-8.2,5.7c-0.1,0.1-0.3,0.1-0.4,0.1c-0.1,0-0.3-0.1-0.3-0.2c-0.1-0.1-0.1-0.3-0.1-0.4c0-0.1,0.1-0.2,0.2-0.3l8.2-5.7
		c1.1-0.7,2.6-0.7,3.7,0l8.2,5.7c0.1,0.1,0.2,0.2,0.2,0.3C3.9-171.7,3.8-171.6,3.8-171.5L3.8-171.5z M1.8-163c0,1.7-1.4,3.1-3.1,3.1
		h-10.3c-1.7,0-3.1-1.4-3.1-3.1v-7.4l6.4-4.4c1.1-0.7,2.6-0.7,3.7,0l6.4,4.4L1.8-163z M0.8-169.8l-5.9-4.1c-0.8-0.5-1.8-0.5-2.7,0
		l-5.9,4.1v6.8c0,1.1,0.9,2.1,2,2.1c0,0,0,0,0,0h2.1v-5.2c0-0.3,0.1-0.5,0.3-0.7c0.2-0.2,0.5-0.3,0.7-0.3h4.1c0.3,0,0.5,0.1,0.7,0.3
		c0.2,0.2,0.3,0.4,0.3,0.7v5.2h2.1c1.1,0,2.1-0.9,2.1-2c0,0,0,0,0,0L0.8-169.8z M-4.4-160.9v-5.2h-4.1v5.2H-4.4z"/>
</g>
</svg>
