<?xml version="1.0" encoding="utf-8"?>
<!-- Generator: Adobe Illustrator 23.0.2, SVG Export Plug-In . SVG Version: 6.00 Build 0)  -->
<svg version="1.1" id="Camada_1" xmlns="http://www.w3.org/2000/svg" xmlns:xlink="http://www.w3.org/1999/xlink" x="0px" y="0px"
	 viewBox="0 0 21.1 21.1" style="enable-background:new 0 0 21.1 21.1;" xml:space="preserve">
<style type="text/css">
</style>
<rect id="SVGID_15_" x="-21.2" y="10.5" class="st0" width="5" height="5"/>
<g id="Grupo_3383" transform="translate(2192 1639)">
	<path id="Caminho_5541" class="st1" d="M-2179.4-1637.9c1.1,0,2.2,0.2,3.2,0.7c1,0.4,1.9,1,2.6,1.8c0.8,0.7,1.4,1.6,1.8,2.6
		c0.4,1,0.7,2.1,0.7,3.2v1c0,1.1-0.2,2.2-0.7,3.2c-0.8,2-2.4,3.5-4.4,4.4c-1,0.4-2.1,0.6-3.2,0.6h-4.6l-5.5,2
		c-0.3,0.1-0.6,0-0.8-0.2c-0.2-0.2-0.4-0.5-0.4-0.8v-5.3c-0.3-0.6-0.6-1.2-0.8-1.9c-0.2-0.7-0.3-1.4-0.3-2.1v-1
		c0-1.1,0.2-2.2,0.7-3.2c0.4-1,1-1.9,1.8-2.6c0.8-0.7,1.6-1.3,2.6-1.8c1-0.4,2.1-0.7,3.2-0.7L-2179.4-1637.9z M-2172.1-1628.7v-1
		c0-0.5,0-1-0.1-1.4c-0.1-0.5-0.2-0.9-0.4-1.4c-0.2-0.4-0.4-0.8-0.7-1.2c-0.3-0.4-0.6-0.7-0.9-1.1c-0.3-0.3-0.7-0.6-1.1-0.9
		c-0.4-0.3-0.8-0.5-1.2-0.7c-0.4-0.2-0.9-0.3-1.4-0.4c-0.5-0.1-1-0.1-1.4-0.1h-4.1c-0.5,0-1,0-1.4,0.1c-0.5,0.1-0.9,0.2-1.4,0.4
		c-0.4,0.2-0.8,0.4-1.2,0.7c-0.4,0.3-0.8,0.6-1.1,0.9c-0.3,0.3-0.6,0.7-0.9,1.1c-0.3,0.4-0.5,0.8-0.7,1.2c-0.2,0.4-0.3,0.9-0.4,1.4
		c-0.1,0.5-0.1,0.9-0.1,1.4v1c0,0.5,0,1,0.1,1.4c0.1,0.5,0.2,0.9,0.4,1.4c0.1,0.2,0.2,0.3,0.2,0.5c0.1,0.2,0.2,0.3,0.3,0.4v5.5
		l5.1-2h5.1c1,0,1.9-0.2,2.8-0.6c0.9-0.4,1.6-0.9,2.3-1.5c0.3-0.3,0.6-0.7,0.9-1.1c0.3-0.4,0.5-0.8,0.7-1.2c0.2-0.4,0.3-0.9,0.4-1.4
		C-2172.2-1627.7-2172.1-1628.2-2172.1-1628.7L-2172.1-1628.7z M-2184.8-1629.4c-0.2-0.2-0.5-0.3-0.7-0.3c-0.3,0-0.5,0.1-0.7,0.3
		c-0.4,0.4-0.4,1.1,0,1.5c0.2,0.2,0.4,0.3,0.7,0.3c0.6,0,1-0.5,1-1C-2184.5-1629-2184.6-1629.2-2184.8-1629.4L-2184.8-1629.4z
		 M-2180.7-1629.4c-0.4-0.4-1.1-0.4-1.5,0c-0.4,0.4-0.4,1.1,0,1.5c0.4,0.4,1.1,0.4,1.5,0c0.2-0.2,0.3-0.5,0.3-0.7
		C-2180.4-1629-2180.5-1629.2-2180.7-1629.4L-2180.7-1629.4z M-2176.6-1629.4c-0.2-0.2-0.4-0.3-0.7-0.3c-0.6,0-1.1,0.4-1.1,1
		c0,0.6,0.4,1.1,1,1.1c0,0,0,0,0.1,0c0.3,0,0.5-0.1,0.7-0.3C-2176.2-1628.4-2176.2-1629-2176.6-1629.4L-2176.6-1629.4z"/>
</g>
</svg>
